<svg width="12839.114" height="14214.333" xmlns="http://www.w3.org/2000/svg">

 <g>
  <title>background</title>
  <rect fill="none" id="canvas_background" height="402" width="582" y="-1" x="-1"/>
 </g>
 <g>
  <title>Layer 1</title>
  <path fill="#ffffff" id="svg_1" d="m6290.399902,3040a1760,3040 0 1 1 -3520,0a1760,3040 0 1 1 3520,0z"/>
  <path fill="#ffffff" id="svg_2" d="m10070.400024,3195.299805a1760,3040 0 1 1 -3520,0a1760,3040 0 1 1 3520,0z"/>
  <path fill="#ffffff" id="svg_3" d="m2883.6682,6278.6752a1409.056,2433.824 0 1 1 -2818.112,501.9872a1409.056,2433.824 0 1 1 2818.112,-501.9872z"/>
  <path fill="#ffffff" id="svg_4" d="m9831.5282,6202.4902a-1469.7936,2538.7344 0 1 1 2939.5872,523.6a-1469.7936,2538.7344 0 1 1 -2939.5872,-523.6z"/>
  <path fill="#ffffff" id="svg_5" d="m6370.4,6612.2c-743.85,0 -1494.5,251.73 -1684.8,825.53s-340.68,1275.9 -827.19,1762.4s-821.04,453.09 -1463.7,670.53s-1324.3,1063.4 -1324.3,2091.5s1211.6,2192.7 1806.8,2192.7s991.82,-30.958 1092.2,-272c100.34,-241.04 300.92,-441.62 548.34,-441.62s448,200.58 617.64,420.92s562.22,317.83 1021.8,317.83s986.65,-59.119 1193.6,-305.84s282.02,-432.91 526.91,-432.91s448,200.58 665.49,516.38s708.39,258.86 1204.5,241.18s1647.7,-1127 1647.7,-2086.6s-354.46,-1702 -917.16,-1945.3c-562.69,-243.3 -1022.5,-93.332 -1545.8,-616.69s-558.81,-1678.9 -867.88,-2112.2s-950.3,-825.81 -1694.2,-825.81l0.05,0z"/>
 </g>
</svg>