<?xml version="1.0" encoding="UTF-8" standalone="no"?>
<svg
   xmlns:dc="http://purl.org/dc/elements/1.1/"
   xmlns:cc="http://creativecommons.org/ns#"
   xmlns:rdf="http://www.w3.org/1999/02/22-rdf-syntax-ns#"
   xmlns:svg="http://www.w3.org/2000/svg"
   xmlns="http://www.w3.org/2000/svg"
   xmlns:sodipodi="http://sodipodi.sourceforge.net/DTD/sodipodi-0.dtd"
   xmlns:inkscape="http://www.inkscape.org/namespaces/inkscape"
   width="12839"
   height="12839"
   viewBox="0 0 12839.114 14214.333"
   version="1.1"
   id="svg3741"
   sodipodi:docname="step-white.svg"
   inkscape:version="0.92.4 (5da689c313, 2019-01-14)">
  <metadata
     id="metadata3747">
    <rdf:RDF>
      <cc:Work
         rdf:about="">
        <dc:format>image/svg+xml</dc:format>
        <dc:type
           rdf:resource="http://purl.org/dc/dcmitype/StillImage" />
        <dc:title></dc:title>
      </cc:Work>
    </rdf:RDF>
  </metadata>
  <defs
     id="defs3745" />
  <sodipodi:namedview
     pagecolor="#ffffff"
     bordercolor="#666666"
     borderopacity="1"
     objecttolerance="10"
     gridtolerance="10"
     guidetolerance="10"
     inkscape:pageopacity="0"
     inkscape:pageshadow="2"
     inkscape:window-width="1920"
     inkscape:window-height="1005"
     id="namedview3743"
     showgrid="false"
     inkscape:zoom="0.045326652"
     inkscape:cx="2095.702"
     inkscape:cy="5225.5206"
     inkscape:window-x="-9"
     inkscape:window-y="-9"
     inkscape:window-maximized="1"
     inkscape:current-layer="svg3741" />
  <path
     transform="translate(-4589.6 -7780)"
     d="m10880 10820a1760 3040 0 1 1 -3520 0 1760 3040 0 1 1 3520 0z"
     id="path3731"
     style="fill:#ffffff" />
  <path
     transform="translate(-809.6 -7624.7)"
     d="m10880 10820a1760 3040 0 1 1 -3520 0 1760 3040 0 1 1 3520 0z"
     id="path3733"
     style="fill:#ffffff" />
  <path
     transform="matrix(.8006 -.14261 .14261 .8006 -7369.9 -832.22)"
     d="m10880 10820a1760 3040 0 1 1 -3520 0 1760 3040 0 1 1 3520 0z"
     id="path3735"
     style="fill:#ffffff" />
  <path
     transform="matrix(-.83511 -.14875 -.14875 .83511 20527 -1215)"
     d="m10880 10820a1760 3040 0 1 1 -3520 0 1760 3040 0 1 1 3520 0z"
     id="path3737"
     style="fill:#ffffff" />
  <path
     d="m6370.4 6612.2c-743.85 0-1494.5 251.73-1684.8 825.53s-340.68 1275.9-827.19 1762.4-821.04 453.09-1463.7 670.53-1324.3 1063.4-1324.3 2091.5 1211.6 2192.7 1806.8 2192.7 991.82-30.958 1092.2-272c100.34-241.04 300.92-441.62 548.34-441.62s448 200.58 617.64 420.92 562.22 317.83 1021.8 317.83 986.65-59.119 1193.6-305.84 282.02-432.91 526.91-432.91 448 200.58 665.49 516.38 708.39 258.86 1204.5 241.18 1647.7-1127 1647.7-2086.6-354.46-1702-917.16-1945.3c-562.69-243.3-1022.5-93.332-1545.8-616.69s-558.81-1678.9-867.88-2112.2-950.3-825.81-1694.2-825.81z"
     id="path3739"
     style="fill:#ffffff" />
</svg>
